<?xml version="1.0" encoding="UTF-8"?>
<!DOCTYPE score-partwise PUBLIC "-//Recordare//DTD MusicXML 2.0 Partwise//EN" "http://www.musicxml.org/dtds/partwise.dtd">
<!-- INFO key="COM" value="Anon." -->
<!-- INFO key="OTL" value="The Herd Passes Through the Village" -->
<!-- INFO key="ODT" value="<1920//" -->
<!-- INFO key="MPN" value="Tutukrawitsu [He overtook the enemy, Wicita Blain]" -->
<!-- INFO key="MLC" value="Pawnee, Oklahoma, United States of America" -->
<!-- GCOMMENT value=" Song was recorded either 1919 or 1920." -->
<!-- INFO key="AGN" value="monody" -->
<!-- INFO key="AST" value="Buffalo dance" -->
<!-- INFO key="AMT" value="irregular" -->
<!-- INFO key="RWG" value="Transcribed pitches, durations, and meters are only approximate." -->
<!-- GCOMMENT value=" Drum Tempo:  MM120" -->
<!-- GCOMMENT value=" Drum-rhythm: (8 8 8 8 8 8)" -->
<score-partwise version="2.0">
	<part-list>
		<score-part id="P1">
			<part-name>male</part-name>
		</score-part>
	</part-list>

	<part id="P1">
		<measure number="1">
			<attributes>
				<divisions>4</divisions>
			</attributes>
			<attributes>
				<clef>
					<sign>F</sign>
					<line>4</line>
				</clef>
			</attributes>
			<attributes>
				<key>
					<fifths>1</fifths>
				</key>
			</attributes>
			<attributes>
				<time>
					<beats>3</beats>
					<beat-type>4</beat-type>
				</time>
			</attributes>
			<note>
				<pitch>
					<step>E</step>
					<octave>4</octave>
				</pitch>
				<duration>1</duration>
				<voice>1</voice>
				<type>16th</type>
				<lyric number="1" name="verse">
					<syllabic>single</syllabic>
					<text>Ti</text>
				</lyric>
				<lyric number="2" name="verse">
					<syllabic>single</syllabic>
					<text>Ti</text>
				</lyric>
				<lyric number="3" name="verse">
					<syllabic>single</syllabic>
					<text>He</text>
				</lyric>
			</note>
			<note>
				<pitch>
					<step>E</step>
					<octave>4</octave>
				</pitch>
				<duration>1</duration>
				<voice>1</voice>
				<type>16th</type>
				<lyric number="1" name="verse">
					<syllabic>single</syllabic>
					<text>wa-</text>
				</lyric>
				<lyric number="2" name="verse">
					<syllabic>single</syllabic>
					<text>waka</text>
				</lyric>
				<lyric number="3" name="verse">
					<syllabic>single</syllabic>
					<text>said</text>
				</lyric>
			</note>
			<note>
				<pitch>
					<step>E</step>
					<octave>4</octave>
				</pitch>
				<duration>2</duration>
				<voice>1</voice>
				<type>eighth</type>
				<lyric number="1" name="verse">
					<syllabic>single</syllabic>
					<text>-ka</text>
				</lyric>
			</note>
			<note>
				<pitch>
					<step>E</step>
					<octave>4</octave>
				</pitch>
				<duration>2</duration>
				<voice>1</voice>
				<type>eighth</type>
				<lyric number="1" name="verse">
					<syllabic>single</syllabic>
					<text>o</text>
				</lyric>
			</note>
			<note>
				<pitch>
					<step>E</step>
					<octave>4</octave>
				</pitch>
				<duration>2</duration>
				<voice>1</voice>
				<type>eighth</type>
				<lyric number="1" name="verse">
					<syllabic>single</syllabic>
					<text>we</text>
				</lyric>
				<lyric number="2" name="verse">
					<syllabic>single</syllabic>
					<text>we</text>
				</lyric>
				<lyric number="3" name="verse">
					<syllabic>single</syllabic>
					<text>now</text>
				</lyric>
			</note>
			<note>
				<pitch>
					<step>E</step>
					<octave>4</octave>
				</pitch>
				<duration>2</duration>
				<voice>1</voice>
				<type>eighth</type>
				<lyric number="1" name="verse">
					<syllabic>single</syllabic>
					<text>re</text>
				</lyric>
				<lyric number="2" name="verse">
					<syllabic>single</syllabic>
					<text>re</text>
				</lyric>
				<lyric number="3" name="verse">
					<syllabic>single</syllabic>
					<text>it</text>
				</lyric>
			</note>
			<note>
				<pitch>
					<step>D</step>
					<octave>4</octave>
				</pitch>
				<duration>2</duration>
				<voice>1</voice>
				<type>eighth</type>
				<lyric number="1" name="verse">
					<syllabic>single</syllabic>
					<text>ru</text>
				</lyric>
				<lyric number="2" name="verse">
					<syllabic>single</syllabic>
					<text>ru</text>
				</lyric>
				<lyric number="3" name="verse">
					<syllabic>single</syllabic>
					<text>do</text>
				</lyric>
			</note>
		</measure>
		<measure number="2">
			<note>
				<pitch>
					<step>E</step>
					<octave>4</octave>
				</pitch>
				<duration>2</duration>
				<voice>1</voice>
				<type>eighth</type>
				<lyric number="1" name="verse">
					<syllabic>single</syllabic>
					<text>ti</text>
				</lyric>
				<lyric number="2" name="verse">
					<syllabic>single</syllabic>
					<text>ti</text>
				</lyric>
				<lyric number="3" name="verse">
					<syllabic>single</syllabic>
					<text>it</text>
				</lyric>
			</note>
			<note>
				<pitch>
					<step>E</step>
					<octave>4</octave>
				</pitch>
				<duration>2</duration>
				<voice>1</voice>
				<type>eighth</type>
				<lyric number="1" name="verse">
					<syllabic>single</syllabic>
					<text>ka-</text>
				</lyric>
				<lyric number="2" name="verse">
					<syllabic>single</syllabic>
					<text>kaku</text>
				</lyric>
				<lyric number="3" name="verse">
					<syllabic>single</syllabic>
					<text>sit among</text>
				</lyric>
			</note>
			<note>
				<pitch>
					<step>E</step>
					<octave>4</octave>
				</pitch>
				<duration>2</duration>
				<voice>1</voice>
				<type>eighth</type>
				<lyric number="1" name="verse">
					<syllabic>single</syllabic>
					<text>-ku</text>
				</lyric>
			</note>
			<note>
				<pitch>
					<step>E</step>
					<octave>4</octave>
				</pitch>
				<duration>2</duration>
				<tie type="start"/>
				<voice>1</voice>
				<type>eighth</type>
				<notations>
					<tied type="start"/>
				</notations>
				<lyric number="1" name="verse">
					<syllabic>single</syllabic>
					<text>sa</text>
				</lyric>
				<lyric number="2" name="verse">
					<syllabic>single</syllabic>
					<text>sa</text>
				</lyric>
				<lyric number="3" name="verse">
					<syllabic>single</syllabic>
					<text>come</text>
				</lyric>
			</note>
			<note>
				<pitch>
					<step>E</step>
					<octave>4</octave>
				</pitch>
				<duration>4</duration>
				<tie type="stop"/>
				<voice>1</voice>
				<type>quarter</type>
				<notations>
					<tied type="stop"/>
				</notations>
				<lyric number="1" name="verse">
					<syllabic>single</syllabic>
					<text>|</text>
				</lyric>
			</note>
			<attributes>
				<time>
					<beats>2</beats>
					<beat-type>4</beat-type>
				</time>
			</attributes>
		</measure>
		<measure number="3">
			<note>
				<pitch>
					<step>E</step>
					<octave>4</octave>
				</pitch>
				<duration>2</duration>
				<voice>1</voice>
				<type>eighth</type>
				<lyric number="1" name="verse">
					<syllabic>single</syllabic>
					<text>ku-</text>
				</lyric>
				<lyric number="2" name="verse">
					<syllabic>single</syllabic>
					<text>kura</text>
				</lyric>
				<lyric number="3" name="verse">
					<syllabic>single</syllabic>
					<text>his</text>
				</lyric>
			</note>
			<note>
				<pitch>
					<step>E</step>
					<octave>4</octave>
				</pitch>
				<duration>2</duration>
				<voice>1</voice>
				<type>eighth</type>
				<lyric number="1" name="verse">
					<syllabic>single</syllabic>
					<text>-ra</text>
				</lyric>
			</note>
			<note>
				<pitch>
					<step>E</step>
					<octave>4</octave>
				</pitch>
				<duration>2</duration>
				<voice>1</voice>
				<type>eighth</type>
				<lyric number="1" name="verse">
					<syllabic>single</syllabic>
					<text>ra</text>
				</lyric>
				<lyric number="2" name="verse">
					<syllabic>single</syllabic>
					<text>ra</text>
				</lyric>
				<lyric number="3" name="verse">
					<syllabic>single</syllabic>
					<text>have</text>
				</lyric>
			</note>
			<note>
				<pitch>
					<step>E</step>
					<octave>4</octave>
				</pitch>
				<duration>2</duration>
				<voice>1</voice>
				<type>eighth</type>
				<lyric number="1" name="verse">
					<syllabic>single</syllabic>
					<text>wa-</text>
				</lyric>
				<lyric number="2" name="verse">
					<syllabic>single</syllabic>
					<text>wakuru</text>
				</lyric>
				<lyric number="3" name="verse">
					<syllabic>single</syllabic>
					<text>sayings</text>
				</lyric>
			</note>
		</measure>
		<measure number="4">
			<note>
				<pitch>
					<step>E</step>
					<octave>4</octave>
				</pitch>
				<duration>2</duration>
				<voice>1</voice>
				<type>eighth</type>
				<lyric number="1" name="verse">
					<syllabic>single</syllabic>
					<text>-ku-</text>
				</lyric>
			</note>
			<note>
				<pitch>
					<step>G</step>
					<octave>3</octave>
				</pitch>
				<duration>2</duration>
				<voice>1</voice>
				<type>eighth</type>
				<lyric number="1" name="verse">
					<syllabic>single</syllabic>
					<text>-ru</text>
				</lyric>
			</note>
			<note>
				<pitch>
					<step>G</step>
					<octave>3</octave>
				</pitch>
				<duration>2</duration>
				<voice>1</voice>
				<type>eighth</type>
				<lyric number="1" name="verse">
					<syllabic>single</syllabic>
					<text>sa</text>
				</lyric>
				<lyric number="2" name="verse">
					<syllabic>single</syllabic>
					<text>sa</text>
				</lyric>
				<lyric number="3" name="verse">
					<syllabic>single</syllabic>
					<text>come</text>
				</lyric>
			</note>
			<note>
				<pitch>
					<step>F</step>
					<alter>1</alter>
					<octave>3</octave>
				</pitch>
				<duration>2</duration>
				<voice>1</voice>
				<type>eighth</type>
				<lyric number="1" name="verse">
					<syllabic>single</syllabic>
					<text>|</text>
				</lyric>
			</note>
			<attributes>
				<time>
					<beats>3</beats>
					<beat-type>4</beat-type>
				</time>
			</attributes>
		</measure>
		<measure number="5">
			<note>
				<pitch>
					<step>G</step>
					<octave>3</octave>
				</pitch>
				<duration>2</duration>
				<voice>1</voice>
				<type>eighth</type>
				<lyric number="1" name="verse">
					<syllabic>single</syllabic>
					<text>we</text>
				</lyric>
				<lyric number="2" name="verse">
					<syllabic>single</syllabic>
					<text>we</text>
				</lyric>
				<lyric number="3" name="verse">
					<syllabic>single</syllabic>
					<text>now</text>
				</lyric>
			</note>
			<note>
				<pitch>
					<step>E</step>
					<octave>3</octave>
				</pitch>
				<duration>2</duration>
				<voice>1</voice>
				<type>eighth</type>
				<lyric number="1" name="verse">
					<syllabic>single</syllabic>
					<text>re</text>
				</lyric>
				<lyric number="2" name="verse">
					<syllabic>single</syllabic>
					<text>re</text>
				</lyric>
				<lyric number="3" name="verse">
					<syllabic>single</syllabic>
					<text>have</text>
				</lyric>
			</note>
			<note>
				<pitch>
					<step>E</step>
					<octave>3</octave>
				</pitch>
				<duration>2</duration>
				<voice>1</voice>
				<type>eighth</type>
				<lyric number="1" name="verse">
					<syllabic>single</syllabic>
					<text>ru</text>
				</lyric>
				<lyric number="2" name="verse">
					<syllabic>single</syllabic>
					<text>ru</text>
				</lyric>
				<lyric number="3" name="verse">
					<syllabic>single</syllabic>
					<text>do</text>
				</lyric>
			</note>
			<note>
				<pitch>
					<step>F</step>
					<alter>1</alter>
					<octave>3</octave>
				</pitch>
				<duration>2</duration>
				<voice>1</voice>
				<type>eighth</type>
				<lyric number="1" name="verse">
					<syllabic>single</syllabic>
					<text>ti</text>
				</lyric>
				<lyric number="2" name="verse">
					<syllabic>single</syllabic>
					<text>ti</text>
				</lyric>
				<lyric number="3" name="verse">
					<syllabic>single</syllabic>
					<text>it</text>
				</lyric>
			</note>
			<note>
				<pitch>
					<step>F</step>
					<alter>1</alter>
					<octave>3</octave>
				</pitch>
				<duration>2</duration>
				<voice>1</voice>
				<type>eighth</type>
				<lyric number="1" name="verse">
					<syllabic>single</syllabic>
					<text>ka-</text>
				</lyric>
				<lyric number="2" name="verse">
					<syllabic>single</syllabic>
					<text>kaku</text>
				</lyric>
				<lyric number="3" name="verse">
					<syllabic>single</syllabic>
					<text>sit among</text>
				</lyric>
			</note>
			<note>
				<pitch>
					<step>F</step>
					<alter>1</alter>
					<octave>3</octave>
				</pitch>
				<duration>2</duration>
				<voice>1</voice>
				<type>eighth</type>
				<lyric number="1" name="verse">
					<syllabic>single</syllabic>
					<text>-ku</text>
				</lyric>
			</note>
			<attributes>
				<time>
					<beats>2</beats>
					<beat-type>4</beat-type>
				</time>
			</attributes>
		</measure>
		<measure number="6">
			<note>
				<pitch>
					<step>E</step>
					<octave>3</octave>
				</pitch>
				<duration>2</duration>
				<voice>1</voice>
				<type>eighth</type>
				<lyric number="1" name="verse">
					<syllabic>single</syllabic>
					<text>sa</text>
				</lyric>
				<lyric number="2" name="verse">
					<syllabic>single</syllabic>
					<text>sa</text>
				</lyric>
				<lyric number="3" name="verse">
					<syllabic>single</syllabic>
					<text>come</text>
				</lyric>
			</note>
			<note>
				<pitch>
					<step>E</step>
					<octave>3</octave>
				</pitch>
				<duration>2</duration>
				<voice>1</voice>
				<type>eighth</type>
				<lyric number="1" name="verse">
					<syllabic>single</syllabic>
					<text>a</text>
				</lyric>
			</note>
			<note>
				<pitch>
					<step>E</step>
					<octave>3</octave>
				</pitch>
				<duration>2</duration>
				<voice>1</voice>
				<type>eighth</type>
				<lyric number="1" name="verse">
					<syllabic>single</syllabic>
					<text>a</text>
				</lyric>
			</note>
			<note>
				<pitch>
					<step>B</step>
					<octave>2</octave>
				</pitch>
				<duration>2</duration>
				<voice>1</voice>
				<type>eighth</type>
				<lyric number="1" name="verse">
					<syllabic>single</syllabic>
					<text>|</text>
				</lyric>
			</note>
			<attributes>
				<time>
					<beats>3</beats>
					<beat-type>4</beat-type>
				</time>
			</attributes>
		</measure>
		<measure number="7">
			<note>
				<pitch>
					<step>E</step>
					<octave>3</octave>
				</pitch>
				<duration>2</duration>
				<voice>1</voice>
				<type>eighth</type>
				<lyric number="1" name="verse">
					<syllabic>single</syllabic>
					<text>we</text>
				</lyric>
				<lyric number="2" name="verse">
					<syllabic>single</syllabic>
					<text>we</text>
				</lyric>
				<lyric number="3" name="verse">
					<syllabic>single</syllabic>
					<text>now</text>
				</lyric>
			</note>
			<note>
				<pitch>
					<step>E</step>
					<octave>3</octave>
				</pitch>
				<duration>2</duration>
				<voice>1</voice>
				<type>eighth</type>
				<lyric number="1" name="verse">
					<syllabic>single</syllabic>
					<text>ra</text>
				</lyric>
				<lyric number="2" name="verse">
					<syllabic>single</syllabic>
					<text>ra</text>
				</lyric>
				<lyric number="3" name="verse">
					<syllabic>single</syllabic>
					<text>have</text>
				</lyric>
			</note>
			<note>
				<pitch>
					<step>E</step>
					<octave>3</octave>
				</pitch>
				<duration>2</duration>
				<voice>1</voice>
				<type>eighth</type>
				<lyric number="1" name="verse">
					<syllabic>single</syllabic>
					<text>ri</text>
				</lyric>
				<lyric number="2" name="verse">
					<syllabic>single</syllabic>
					<text>ri</text>
				</lyric>
				<lyric number="3" name="verse">
					<syllabic>single</syllabic>
					<text>it</text>
				</lyric>
			</note>
			<note>
				<pitch>
					<step>F</step>
					<alter>1</alter>
					<octave>3</octave>
				</pitch>
				<duration>2</duration>
				<voice>1</voice>
				<type>eighth</type>
				<lyric number="1" name="verse">
					<syllabic>single</syllabic>
					<text>tu-</text>
				</lyric>
				<lyric number="2" name="verse">
					<syllabic>single</syllabic>
					<text>turu</text>
				</lyric>
				<lyric number="3" name="verse">
					<syllabic>single</syllabic>
					<text>village</text>
				</lyric>
			</note>
			<note>
				<pitch>
					<step>F</step>
					<alter>1</alter>
					<octave>3</octave>
				</pitch>
				<duration>2</duration>
				<voice>1</voice>
				<type>eighth</type>
				<lyric number="1" name="verse">
					<syllabic>single</syllabic>
					<text>-ru</text>
				</lyric>
			</note>
			<note>
				<pitch>
					<step>F</step>
					<alter>1</alter>
					<octave>3</octave>
				</pitch>
				<duration>2</duration>
				<voice>1</voice>
				<type>eighth</type>
				<lyric number="1" name="verse">
					<syllabic>single</syllabic>
					<text>kat-</text>
				</lyric>
				<lyric number="2" name="verse">
					<syllabic>single</syllabic>
					<text>katka</text>
				</lyric>
				<lyric number="3" name="verse">
					<syllabic>single</syllabic>
					<text>cut across</text>
				</lyric>
			</note>
			<attributes>
				<time>
					<beats>2</beats>
					<beat-type>4</beat-type>
				</time>
			</attributes>
		</measure>
		<measure number="8">
			<note>
				<pitch>
					<step>E</step>
					<octave>3</octave>
				</pitch>
				<duration>2</duration>
				<voice>1</voice>
				<type>eighth</type>
				<lyric number="1" name="verse">
					<syllabic>single</syllabic>
					<text>-ka</text>
				</lyric>
			</note>
			<note>
				<pitch>
					<step>E</step>
					<octave>3</octave>
				</pitch>
				<duration>2</duration>
				<voice>1</voice>
				<type>eighth</type>
				<lyric number="1" name="verse">
					<syllabic>single</syllabic>
					<text>a</text>
				</lyric>
			</note>
			<note>
				<pitch>
					<step>E</step>
					<octave>3</octave>
				</pitch>
				<duration>2</duration>
				<voice>1</voice>
				<type>eighth</type>
				<lyric number="1" name="verse">
					<syllabic>single</syllabic>
					<text>a</text>
				</lyric>
			</note>
			<note>
				<pitch>
					<step>B</step>
					<octave>2</octave>
				</pitch>
				<duration>2</duration>
				<voice>1</voice>
				<type>eighth</type>
				<lyric number="1" name="verse">
					<syllabic>single</syllabic>
					<text>|</text>
				</lyric>
			</note>
		</measure>
		<measure number="9">
			<note>
				<pitch>
					<step>E</step>
					<octave>3</octave>
				</pitch>
				<duration>2</duration>
				<voice>1</voice>
				<type>eighth</type>
				<lyric number="1" name="verse">
					<syllabic>single</syllabic>
					<text>we</text>
				</lyric>
				<lyric number="2" name="verse">
					<syllabic>single</syllabic>
					<text>we</text>
				</lyric>
				<lyric number="3" name="verse">
					<syllabic>single</syllabic>
					<text>now</text>
				</lyric>
			</note>
			<note>
				<pitch>
					<step>E</step>
					<octave>3</octave>
				</pitch>
				<duration>2</duration>
				<voice>1</voice>
				<type>eighth</type>
				<lyric number="1" name="verse">
					<syllabic>single</syllabic>
					<text>re</text>
				</lyric>
				<lyric number="2" name="verse">
					<syllabic>single</syllabic>
					<text>re</text>
				</lyric>
				<lyric number="3" name="verse">
					<syllabic>single</syllabic>
					<text>they</text>
				</lyric>
			</note>
			<note>
				<pitch>
					<step>E</step>
					<octave>3</octave>
				</pitch>
				<duration>2</duration>
				<voice>1</voice>
				<type>eighth</type>
				<lyric number="1" name="verse">
					<syllabic>single</syllabic>
					<text>ra</text>
				</lyric>
				<lyric number="2" name="verse">
					<syllabic>single</syllabic>
					<text>ra</text>
				</lyric>
				<lyric number="3" name="verse">
					<syllabic>single</syllabic>
					<text>have</text>
				</lyric>
			</note>
			<note>
				<pitch>
					<step>F</step>
					<alter>1</alter>
					<octave>3</octave>
				</pitch>
				<duration>2</duration>
				<voice>1</voice>
				<type>eighth</type>
				<lyric number="1" name="verse">
					<syllabic>single</syllabic>
					<text>hu</text>
				</lyric>
				<lyric number="2" name="verse">
					<syllabic>single</syllabic>
					<text>hu</text>
				</lyric>
				<lyric number="3" name="verse">
					<syllabic>single</syllabic>
					<text>stream</text>
				</lyric>
			</note>
		</measure>
		<measure number="10">
			<note>
				<pitch>
					<step>F</step>
					<alter>1</alter>
					<octave>3</octave>
				</pitch>
				<duration>2</duration>
				<voice>1</voice>
				<type>eighth</type>
				<lyric number="1" name="verse">
					<syllabic>single</syllabic>
					<text>ka-</text>
				</lyric>
				<lyric number="2" name="verse">
					<syllabic>single</syllabic>
					<text>katata</text>
				</lyric>
				<lyric number="3" name="verse">
					<syllabic>single</syllabic>
					<text>crossed</text>
				</lyric>
			</note>
			<note>
				<pitch>
					<step>E</step>
					<octave>3</octave>
				</pitch>
				<duration>2</duration>
				<voice>1</voice>
				<type>eighth</type>
				<lyric number="1" name="verse">
					<syllabic>single</syllabic>
					<text>-ta-</text>
				</lyric>
			</note>
			<note>
				<pitch>
					<step>E</step>
					<octave>3</octave>
				</pitch>
				<duration>4</duration>
				<voice>1</voice>
				<type>quarter</type>
				<lyric number="1" name="verse">
					<syllabic>single</syllabic>
					<text>-ta</text>
				</lyric>
			</note>
			<attributes>
				<time>
					<beats>3</beats>
					<beat-type>4</beat-type>
				</time>
			</attributes>
		</measure>
		<measure number="11">
			<note>
				<pitch>
					<step>F</step>
					<alter>1</alter>
					<octave>4</octave>
				</pitch>
				<duration>2</duration>
				<voice>1</voice>
				<type>eighth</type>
				<lyric number="1" name="verse">
					<syllabic>single</syllabic>
					<text>ru</text>
				</lyric>
				<lyric number="2" name="verse">
					<syllabic>single</syllabic>
					<text>ru</text>
				</lyric>
				<lyric number="3" name="verse">
					<syllabic>single</syllabic>
					<text>do</text>
				</lyric>
			</note>
			<note>
				<pitch>
					<step>E</step>
					<octave>4</octave>
				</pitch>
				<duration>2</duration>
				<voice>1</voice>
				<type>eighth</type>
				<lyric number="1" name="verse">
					<syllabic>single</syllabic>
					<text>te</text>
				</lyric>
				<lyric number="2" name="verse">
					<syllabic>single</syllabic>
					<text>te</text>
				</lyric>
				<lyric number="3" name="verse">
					<syllabic>single</syllabic>
					<text>it</text>
				</lyric>
			</note>
			<note>
				<pitch>
					<step>E</step>
					<octave>4</octave>
				</pitch>
				<duration>2</duration>
				<voice>1</voice>
				<type>eighth</type>
				<lyric number="1" name="verse">
					<syllabic>single</syllabic>
					<text>wi</text>
				</lyric>
				<lyric number="2" name="verse">
					<syllabic>single</syllabic>
					<text>wi</text>
				</lyric>
				<lyric number="3" name="verse">
					<syllabic>single</syllabic>
					<text>fly</text>
				</lyric>
			</note>
			<note>
				<pitch>
					<step>E</step>
					<octave>4</octave>
				</pitch>
				<duration>2</duration>
				<voice>1</voice>
				<type>eighth</type>
				<lyric number="1" name="verse">
					<syllabic>single</syllabic>
					<text>kaks</text>
				</lyric>
				<lyric number="2" name="verse">
					<syllabic>single</syllabic>
					<text>kaks</text>
				</lyric>
				<lyric number="3" name="verse">
					<syllabic>single</syllabic>
					<text>shout</text>
				</lyric>
			</note>
			<note>
				<pitch>
					<step>E</step>
					<octave>4</octave>
				</pitch>
				<duration>2</duration>
				<voice>1</voice>
				<type>eighth</type>
				<lyric number="1" name="verse">
					<syllabic>single</syllabic>
					<text>a-</text>
				</lyric>
				<lyric number="2" name="verse">
					<syllabic>single</syllabic>
					<text>awahu</text>
				</lyric>
				<lyric number="3" name="verse">
					<syllabic>single</syllabic>
					<text>here and there</text>
				</lyric>
			</note>
			<note>
				<pitch>
					<step>E</step>
					<octave>4</octave>
				</pitch>
				<duration>2</duration>
				<voice>1</voice>
				<type>eighth</type>
				<lyric number="1" name="verse">
					<syllabic>single</syllabic>
					<text>-wa-</text>
				</lyric>
			</note>
			<attributes>
				<time>
					<beats>2</beats>
					<beat-type>4</beat-type>
				</time>
			</attributes>
		</measure>
		<measure number="12">
			<note>
				<pitch>
					<step>E</step>
					<octave>4</octave>
				</pitch>
				<duration>2</duration>
				<voice>1</voice>
				<type>eighth</type>
				<lyric number="1" name="verse">
					<syllabic>single</syllabic>
					<text>-hu</text>
				</lyric>
			</note>
			<note>
				<pitch>
					<step>G</step>
					<octave>3</octave>
				</pitch>
				<duration>2</duration>
				<voice>1</voice>
				<type>eighth</type>
				<lyric number="1" name="verse">
					<syllabic>single</syllabic>
					<text>|</text>
				</lyric>
			</note>
			<note>
				<pitch>
					<step>G</step>
					<alter>1</alter>
					<octave>3</octave>
				</pitch>
				<duration>2</duration>
				<voice>1</voice>
				<type>eighth</type>
				<accidental>sharp</accidental>
				<lyric number="1" name="verse">
					<syllabic>single</syllabic>
					<text>u</text>
				</lyric>
			</note>
			<note>
				<pitch>
					<step>F</step>
					<alter>1</alter>
					<octave>3</octave>
				</pitch>
				<duration>2</duration>
				<voice>1</voice>
				<type>eighth</type>
				<lyric number="1" name="verse">
					<syllabic>single</syllabic>
					<text>|</text>
				</lyric>
			</note>
			<attributes>
				<time>
					<beats>3</beats>
					<beat-type>4</beat-type>
				</time>
			</attributes>
		</measure>
		<measure number="13">
			<note>
				<pitch>
					<step>G</step>
					<octave>3</octave>
				</pitch>
				<duration>2</duration>
				<voice>1</voice>
				<type>eighth</type>
				<accidental>natural</accidental>
				<lyric number="1" name="verse">
					<syllabic>single</syllabic>
					<text>we</text>
				</lyric>
				<lyric number="2" name="verse">
					<syllabic>single</syllabic>
					<text>we</text>
				</lyric>
				<lyric number="3" name="verse">
					<syllabic>single</syllabic>
					<text>now</text>
				</lyric>
			</note>
			<note>
				<pitch>
					<step>E</step>
					<octave>3</octave>
				</pitch>
				<duration>2</duration>
				<voice>1</voice>
				<type>eighth</type>
				<lyric number="1" name="verse">
					<syllabic>single</syllabic>
					<text>re</text>
				</lyric>
				<lyric number="2" name="verse">
					<syllabic>single</syllabic>
					<text>re</text>
				</lyric>
				<lyric number="3" name="verse">
					<syllabic>single</syllabic>
					<text>it</text>
				</lyric>
			</note>
			<note>
				<pitch>
					<step>E</step>
					<octave>3</octave>
				</pitch>
				<duration>2</duration>
				<voice>1</voice>
				<type>eighth</type>
				<lyric number="1" name="verse">
					<syllabic>single</syllabic>
					<text>ru</text>
				</lyric>
				<lyric number="2" name="verse">
					<syllabic>single</syllabic>
					<text>ru</text>
				</lyric>
				<lyric number="3" name="verse">
					<syllabic>single</syllabic>
					<text>do</text>
				</lyric>
			</note>
			<note>
				<pitch>
					<step>F</step>
					<alter>1</alter>
					<octave>3</octave>
				</pitch>
				<duration>2</duration>
				<voice>1</voice>
				<type>eighth</type>
				<lyric number="1" name="verse">
					<syllabic>single</syllabic>
					<text>ti</text>
				</lyric>
				<lyric number="2" name="verse">
					<syllabic>single</syllabic>
					<text>ti</text>
				</lyric>
				<lyric number="3" name="verse">
					<syllabic>single</syllabic>
					<text>it</text>
				</lyric>
			</note>
			<note>
				<pitch>
					<step>F</step>
					<alter>1</alter>
					<octave>3</octave>
				</pitch>
				<duration>2</duration>
				<voice>1</voice>
				<type>eighth</type>
				<lyric number="1" name="verse">
					<syllabic>single</syllabic>
					<text>ka-</text>
				</lyric>
				<lyric number="2" name="verse">
					<syllabic>single</syllabic>
					<text>kaku</text>
				</lyric>
				<lyric number="3" name="verse">
					<syllabic>single</syllabic>
					<text>sit among</text>
				</lyric>
			</note>
			<note>
				<pitch>
					<step>F</step>
					<alter>1</alter>
					<octave>3</octave>
				</pitch>
				<duration>2</duration>
				<voice>1</voice>
				<type>eighth</type>
				<lyric number="1" name="verse">
					<syllabic>single</syllabic>
					<text>-ku</text>
				</lyric>
			</note>
			<attributes>
				<time>
					<beats>2</beats>
					<beat-type>4</beat-type>
				</time>
			</attributes>
		</measure>
		<measure number="14">
			<note>
				<pitch>
					<step>E</step>
					<octave>3</octave>
				</pitch>
				<duration>2</duration>
				<voice>1</voice>
				<type>eighth</type>
				<lyric number="1" name="verse">
					<syllabic>single</syllabic>
					<text>sa</text>
				</lyric>
				<lyric number="2" name="verse">
					<syllabic>single</syllabic>
					<text>sa</text>
				</lyric>
				<lyric number="3" name="verse">
					<syllabic>single</syllabic>
					<text>come</text>
				</lyric>
			</note>
			<note>
				<pitch>
					<step>E</step>
					<octave>3</octave>
				</pitch>
				<duration>2</duration>
				<voice>1</voice>
				<type>eighth</type>
				<lyric number="1" name="verse">
					<syllabic>single</syllabic>
					<text>a</text>
				</lyric>
			</note>
			<note>
				<pitch>
					<step>E</step>
					<octave>3</octave>
				</pitch>
				<duration>2</duration>
				<voice>1</voice>
				<type>eighth</type>
				<lyric number="1" name="verse">
					<syllabic>single</syllabic>
					<text>a</text>
				</lyric>
			</note>
			<note>
				<pitch>
					<step>B</step>
					<octave>2</octave>
				</pitch>
				<duration>2</duration>
				<voice>1</voice>
				<type>eighth</type>
				<lyric number="1" name="verse">
					<syllabic>single</syllabic>
					<text>|</text>
				</lyric>
			</note>
			<attributes>
				<time>
					<beats>3</beats>
					<beat-type>4</beat-type>
				</time>
			</attributes>
		</measure>
		<measure number="15">
			<note>
				<pitch>
					<step>E</step>
					<octave>3</octave>
				</pitch>
				<duration>2</duration>
				<voice>1</voice>
				<type>eighth</type>
				<lyric number="1" name="verse">
					<syllabic>single</syllabic>
					<text>we</text>
				</lyric>
				<lyric number="2" name="verse">
					<syllabic>single</syllabic>
					<text>we</text>
				</lyric>
				<lyric number="3" name="verse">
					<syllabic>single</syllabic>
					<text>now</text>
				</lyric>
			</note>
			<note>
				<pitch>
					<step>E</step>
					<octave>3</octave>
				</pitch>
				<duration>2</duration>
				<voice>1</voice>
				<type>eighth</type>
				<lyric number="1" name="verse">
					<syllabic>single</syllabic>
					<text>ra</text>
				</lyric>
				<lyric number="2" name="verse">
					<syllabic>single</syllabic>
					<text>ra</text>
				</lyric>
				<lyric number="3" name="verse">
					<syllabic>single</syllabic>
					<text>have</text>
				</lyric>
			</note>
			<note>
				<pitch>
					<step>E</step>
					<octave>3</octave>
				</pitch>
				<duration>2</duration>
				<voice>1</voice>
				<type>eighth</type>
				<lyric number="1" name="verse">
					<syllabic>single</syllabic>
					<text>ri</text>
				</lyric>
				<lyric number="2" name="verse">
					<syllabic>single</syllabic>
					<text>ri</text>
				</lyric>
				<lyric number="3" name="verse">
					<syllabic>single</syllabic>
					<text>it</text>
				</lyric>
			</note>
			<note>
				<pitch>
					<step>F</step>
					<alter>1</alter>
					<octave>3</octave>
				</pitch>
				<duration>2</duration>
				<voice>1</voice>
				<type>eighth</type>
				<lyric number="1" name="verse">
					<syllabic>single</syllabic>
					<text>tu-</text>
				</lyric>
				<lyric number="2" name="verse">
					<syllabic>single</syllabic>
					<text>turu</text>
				</lyric>
				<lyric number="3" name="verse">
					<syllabic>single</syllabic>
					<text>village</text>
				</lyric>
			</note>
			<note>
				<pitch>
					<step>F</step>
					<alter>1</alter>
					<octave>3</octave>
				</pitch>
				<duration>2</duration>
				<voice>1</voice>
				<type>eighth</type>
				<lyric number="1" name="verse">
					<syllabic>single</syllabic>
					<text>-ru</text>
				</lyric>
			</note>
			<note>
				<pitch>
					<step>F</step>
					<alter>1</alter>
					<octave>3</octave>
				</pitch>
				<duration>2</duration>
				<voice>1</voice>
				<type>eighth</type>
				<lyric number="1" name="verse">
					<syllabic>single</syllabic>
					<text>kat-</text>
				</lyric>
				<lyric number="2" name="verse">
					<syllabic>single</syllabic>
					<text>katka</text>
				</lyric>
				<lyric number="3" name="verse">
					<syllabic>single</syllabic>
					<text>cut across</text>
				</lyric>
			</note>
			<attributes>
				<time>
					<beats>2</beats>
					<beat-type>4</beat-type>
				</time>
			</attributes>
		</measure>
		<measure number="16">
			<note>
				<pitch>
					<step>E</step>
					<octave>3</octave>
				</pitch>
				<duration>2</duration>
				<voice>1</voice>
				<type>eighth</type>
				<lyric number="1" name="verse">
					<syllabic>single</syllabic>
					<text>-ka</text>
				</lyric>
			</note>
			<note>
				<pitch>
					<step>E</step>
					<octave>3</octave>
				</pitch>
				<duration>2</duration>
				<voice>1</voice>
				<type>eighth</type>
				<lyric number="1" name="verse">
					<syllabic>single</syllabic>
					<text>a</text>
				</lyric>
			</note>
			<note>
				<pitch>
					<step>E</step>
					<octave>3</octave>
				</pitch>
				<duration>2</duration>
				<voice>1</voice>
				<type>eighth</type>
				<lyric number="1" name="verse">
					<syllabic>single</syllabic>
					<text>a</text>
				</lyric>
			</note>
			<note>
				<pitch>
					<step>B</step>
					<octave>2</octave>
				</pitch>
				<duration>2</duration>
				<voice>1</voice>
				<type>eighth</type>
				<lyric number="1" name="verse">
					<syllabic>single</syllabic>
					<text>|</text>
				</lyric>
			</note>
		</measure>
		<measure number="17">
			<note>
				<pitch>
					<step>E</step>
					<octave>3</octave>
				</pitch>
				<duration>2</duration>
				<voice>1</voice>
				<type>eighth</type>
				<lyric number="1" name="verse">
					<syllabic>single</syllabic>
					<text>we</text>
				</lyric>
				<lyric number="2" name="verse">
					<syllabic>single</syllabic>
					<text>we</text>
				</lyric>
				<lyric number="3" name="verse">
					<syllabic>single</syllabic>
					<text>now</text>
				</lyric>
			</note>
			<note>
				<pitch>
					<step>E</step>
					<octave>3</octave>
				</pitch>
				<duration>2</duration>
				<voice>1</voice>
				<type>eighth</type>
				<lyric number="1" name="verse">
					<syllabic>single</syllabic>
					<text>re</text>
				</lyric>
				<lyric number="2" name="verse">
					<syllabic>single</syllabic>
					<text>re</text>
				</lyric>
				<lyric number="3" name="verse">
					<syllabic>single</syllabic>
					<text>they</text>
				</lyric>
			</note>
			<note>
				<pitch>
					<step>E</step>
					<octave>3</octave>
				</pitch>
				<duration>2</duration>
				<voice>1</voice>
				<type>eighth</type>
				<lyric number="1" name="verse">
					<syllabic>single</syllabic>
					<text>ra</text>
				</lyric>
				<lyric number="2" name="verse">
					<syllabic>single</syllabic>
					<text>ra</text>
				</lyric>
				<lyric number="3" name="verse">
					<syllabic>single</syllabic>
					<text>have</text>
				</lyric>
			</note>
			<note>
				<pitch>
					<step>F</step>
					<alter>1</alter>
					<octave>3</octave>
				</pitch>
				<duration>2</duration>
				<voice>1</voice>
				<type>eighth</type>
				<lyric number="1" name="verse">
					<syllabic>single</syllabic>
					<text>hu</text>
				</lyric>
				<lyric number="2" name="verse">
					<syllabic>single</syllabic>
					<text>hu</text>
				</lyric>
				<lyric number="3" name="verse">
					<syllabic>single</syllabic>
					<text>stream</text>
				</lyric>
			</note>
		</measure>
		<measure number="18">
			<note>
				<pitch>
					<step>F</step>
					<alter>1</alter>
					<octave>3</octave>
				</pitch>
				<duration>2</duration>
				<voice>1</voice>
				<type>eighth</type>
				<lyric number="1" name="verse">
					<syllabic>single</syllabic>
					<text>ka-</text>
				</lyric>
				<lyric number="2" name="verse">
					<syllabic>single</syllabic>
					<text>katata</text>
				</lyric>
				<lyric number="3" name="verse">
					<syllabic>single</syllabic>
					<text>crossed</text>
				</lyric>
			</note>
			<note>
				<pitch>
					<step>E</step>
					<octave>3</octave>
				</pitch>
				<duration>2</duration>
				<voice>1</voice>
				<type>eighth</type>
				<lyric number="1" name="verse">
					<syllabic>single</syllabic>
					<text>-ta-</text>
				</lyric>
			</note>
			<note>
				<pitch>
					<step>E</step>
					<octave>3</octave>
				</pitch>
				<duration>4</duration>
				<voice>1</voice>
				<type>quarter</type>
				<lyric number="1" name="verse">
					<syllabic>single</syllabic>
					<text>-ta</text>
				</lyric>
			</note>
		</measure>
	</part>
</score-partwise>
<!-- INFO key="HAO" value="   The ceremony of Painting the Buffalo Skull is held every spring by the" -->
<!-- INFO key="HAO" value="Chaui Band of Pawnee and is in charge of Mr. Stacy Matlock, a prominent" -->
<!-- INFO key="HAO" value="member of that band.  The closing events of the ceremony are the Buffalo" -->
<!-- INFO key="HAO" value="and Lance dances, which were witnessed by the writer through the courtesy" -->
<!-- INFO key="HAO" value="of Mr. Matlock, no other white person being present.  The ceremony and" -->
<!-- INFO key="HAO" value="dances were held in a large earth lodge, several miles south of the town" -->
<!-- INFO key="HAO" value="of Pawnee.  The opening of the lodge was toward the east.  At some" -->
<!-- INFO key="HAO" value="distance was a framework, probably that of a sweat lodge.  Only members" -->
<!-- INFO key="HAO" value="of the Buffalo Society were admitted to the painting of the skull, but" -->
<!-- INFO key="HAO" value="during the Buffalo dance the skull painted a few days previously, lay on" -->
<!-- INFO key="HAO" value="a folded blanket in front of the "altar" which was opposite the entrance." -->
<!-- INFO key="HAO" value="This occasion and the Lance dance held a few days later afforded exceptional" -->
<!-- INFO key="HAO" value="opportunities to listen to Pawnee songs, but the semidarkness of the lodge" -->
<!-- INFO key="HAO" value="and the solemnity of the occasion precluded the taking of notes upon either" -->
<!-- INFO key="HAO" value="the music or the details of the ceremonial dances." -->
<!-- INFO key="HAO" value="   The chief singer at both of these dances was Wicita Blain, a blind man" -->
<!-- INFO key="HAO" value="who received the songs by inheritance.  He led the songs which were sung" -->
<!-- INFO key="HAO" value="at a certain position back of the altar.  At a later time he recorded the" -->
<!-- INFO key="HAO" value="ceremonial songs here presented, also certain songs of the Bear dance," -->
<!-- INFO key="HAO" value="which is held in equally high esteem by the Pawnee.  John Luwak, chief of" -->
<!-- INFO key="HAO" value="the Chaui Band, was prominent at the Lance dance and later recorded " -->
<!-- INFO key="HAO" value="numerous songs, including those of the Crow Lance Society." -->
<!-- INFO key="HAO" value="   The following song was led by Mr. Blain at the Buffalo dance attended" -->
<!-- INFO key="HAO" value="by the writer and is a very old song concerning Mrs. Blain's uncle, whose" -->
<!-- INFO key="HAO" value="name was Naru'dapadi.  A great herd of buffalo came to the place where" -->
<!-- INFO key="HAO" value="the Indians were encamped and threatened the destruction of the village." -->
<!-- INFO key="HAO" value="Her uncle rode toward them, shouting and firing his gun in an attempt to" -->
<!-- INFO key="HAO" value="divert them from their course, but he was caught in the herd.  There were" -->
<!-- INFO key="HAO" value="buffalo on all sides of him as the herd swept through the camp and across" -->
<!-- INFO key="HAO" value="a stream, carrying him with them." -->
<!-- INFO key="HTX" value="Listen, he said," -->
<!-- INFO key="HTX" value="Now it (the man) sits among them (the buffalo)," -->
<!-- INFO key="HTX" value="These are his sayings," -->
<!-- INFO key="HTX" value="Now it sits among them as they come," -->
<!-- INFO key="HTX" value="Now they have passed through the village," -->
<!-- INFO key="HTX" value="Now they have crossed the stream," -->
<!-- INFO key="HTX" value="It flies above them here and there, shouting and calling." -->
<!-- INFO key="CNT" value="Pawnee" -->
<!-- INFO key="TXO" value="Pawnee" -->
<!-- INFO key="OCY" value="United States" -->
<!-- INFO key="OCL" value="Frances Densmore" -->
<!-- INFO key="YOR" value="Frances Densmore, "Pawnee Music"" -->
<!-- INFO key="YOR" value="Bulletin 93, page 25, No. 2" -->
<!-- INFO key="PPR" value="Smithsonian Institution, Bureau of American Ethnology" -->
<!-- INFO key="PPR" value="Government Printing Office" -->
<!-- INFO key="PDT" value="1926" -->
<!-- INFO key="PPP" value="Washington, DC, United States of America" -->
<!-- INFO key="YEC" value="Electronic Copyright 2000 David Huron" -->
<!-- INFO key="YER" value="September 2000" -->
<!-- INFO key="YEN" value="United States of America" -->
<!-- INFO key="ENC" value="David Huron" -->
<!-- INFO key="RDT" value="August 31, 2000" -->
<!-- INFO key="EEV" value="Release 1.0" -->
<!-- INFO key="AIN" value="tom, vox" -->
