<?xml version="1.0" encoding="UTF-8"?>
<!DOCTYPE score-partwise PUBLIC "-//Recordare//DTD MusicXML 2.0 Partwise//EN" "http://www.musicxml.org/dtds/partwise.dtd">
<!-- INFO key="COM" value="Anon." -->
<!-- INFO key="OTL" value="Song as the Boys Flew Away" -->
<!-- INFO key="ODT" value="<1920//" -->
<!-- INFO key="MPN" value="Mary Murie" -->
<!-- INFO key="MLC" value="Pawnee, Oklahoma, United States of America" -->
<!-- GCOMMENT value=" Song was recorded either 1919 or 1920." -->
<!-- INFO key="AGN" value="monody" -->
<!-- INFO key="AST" value="story of Nuri and his brother" -->
<!-- INFO key="AMT" value="simple duple" -->
<!-- INFO key="RWG" value="Transcribed pitches, durations, and meters are only approximate." -->
<!-- GCOMMENT value=" Drum not recorded" -->
<score-partwise version="2.0">
	<part-list>
		<score-part id="P1">
			<part-name>female</part-name>
		</score-part>
	</part-list>

	<part id="P1">
		<measure number="1">
			<attributes>
				<divisions>4</divisions>
			</attributes>
			<attributes>
				<clef>
					<sign>G</sign>
					<line>2</line>
				</clef>
			</attributes>
			<attributes>
				<key>
					<fifths>0</fifths>
				</key>
			</attributes>
			<attributes>
				<time>
					<beats>2</beats>
					<beat-type>4</beat-type>
				</time>
			</attributes>
			<note>
				<pitch>
					<step>E</step>
					<octave>4</octave>
				</pitch>
				<duration>1</duration>
				<voice>1</voice>
				<type>16th</type>
			</note>
		</measure>
		<measure number="2">
			<note>
				<pitch>
					<step>E</step>
					<octave>4</octave>
				</pitch>
				<duration>3</duration>
				<voice>1</voice>
				<type>eighth</type>
				<dot/>
			</note>
			<note>
				<pitch>
					<step>E</step>
					<octave>4</octave>
				</pitch>
				<duration>1</duration>
				<voice>1</voice>
				<type>16th</type>
			</note>
			<note>
				<pitch>
					<step>E</step>
					<octave>4</octave>
				</pitch>
				<duration>3</duration>
				<voice>1</voice>
				<type>eighth</type>
				<dot/>
			</note>
			<note>
				<pitch>
					<step>E</step>
					<octave>4</octave>
				</pitch>
				<duration>1</duration>
				<voice>1</voice>
				<type>16th</type>
			</note>
		</measure>
		<measure number="3">
			<note>
				<pitch>
					<step>E</step>
					<octave>4</octave>
				</pitch>
				<duration>2</duration>
				<voice>1</voice>
				<type>eighth</type>
			</note>
			<note>
				<pitch>
					<step>D</step>
					<octave>4</octave>
				</pitch>
				<duration>2</duration>
				<voice>1</voice>
				<type>eighth</type>
			</note>
			<note>
				<pitch>
					<step>C</step>
					<octave>4</octave>
				</pitch>
				<duration>2</duration>
				<voice>1</voice>
				<type>eighth</type>
			</note>
			<note>
				<pitch>
					<step>C</step>
					<octave>4</octave>
				</pitch>
				<duration>2</duration>
				<voice>1</voice>
				<type>eighth</type>
			</note>
		</measure>
		<measure number="4">
			<note>
				<pitch>
					<step>A</step>
					<octave>3</octave>
				</pitch>
				<duration>3</duration>
				<voice>1</voice>
				<type>eighth</type>
				<dot/>
				<notations>
					<fermata type="upright"/>
				</notations>
			</note>
			<note>
				<pitch>
					<step>A</step>
					<octave>3</octave>
				</pitch>
				<duration>1</duration>
				<voice>1</voice>
				<type>16th</type>
			</note>
			<note>
				<pitch>
					<step>A</step>
					<octave>3</octave>
				</pitch>
				<duration>3</duration>
				<voice>1</voice>
				<type>eighth</type>
				<dot/>
			</note>
			<note>
				<pitch>
					<step>A</step>
					<octave>3</octave>
				</pitch>
				<duration>1</duration>
				<voice>1</voice>
				<type>16th</type>
			</note>
		</measure>
		<measure number="5">
			<note>
				<pitch>
					<step>A</step>
					<octave>3</octave>
				</pitch>
				<duration>3</duration>
				<voice>1</voice>
				<type>eighth</type>
				<dot/>
				<notations>
					<fermata type="upright"/>
				</notations>
			</note>
			<note>
				<pitch>
					<step>A</step>
					<octave>3</octave>
				</pitch>
				<duration>1</duration>
				<voice>1</voice>
				<type>16th</type>
			</note>
			<note>
				<pitch>
					<step>A</step>
					<octave>3</octave>
				</pitch>
				<duration>3</duration>
				<voice>1</voice>
				<type>eighth</type>
				<dot/>
			</note>
			<note>
				<pitch>
					<step>E</step>
					<octave>4</octave>
				</pitch>
				<duration>1</duration>
				<voice>1</voice>
				<type>16th</type>
			</note>
		</measure>
		<measure number="6">
			<note>
				<pitch>
					<step>E</step>
					<octave>4</octave>
				</pitch>
				<duration>3</duration>
				<voice>1</voice>
				<type>eighth</type>
				<dot/>
			</note>
			<note>
				<pitch>
					<step>E</step>
					<octave>4</octave>
				</pitch>
				<duration>1</duration>
				<voice>1</voice>
				<type>16th</type>
			</note>
			<note>
				<pitch>
					<step>E</step>
					<octave>4</octave>
				</pitch>
				<duration>3</duration>
				<voice>1</voice>
				<type>eighth</type>
				<dot/>
			</note>
			<note>
				<pitch>
					<step>E</step>
					<octave>4</octave>
				</pitch>
				<duration>1</duration>
				<voice>1</voice>
				<type>16th</type>
			</note>
		</measure>
		<measure number="7">
			<note>
				<pitch>
					<step>E</step>
					<octave>4</octave>
				</pitch>
				<duration>2</duration>
				<voice>1</voice>
				<type>eighth</type>
			</note>
			<note>
				<pitch>
					<step>D</step>
					<octave>4</octave>
				</pitch>
				<duration>2</duration>
				<voice>1</voice>
				<type>eighth</type>
			</note>
			<note>
				<pitch>
					<step>C</step>
					<octave>4</octave>
				</pitch>
				<duration>2</duration>
				<voice>1</voice>
				<type>eighth</type>
			</note>
			<note>
				<pitch>
					<step>C</step>
					<octave>4</octave>
				</pitch>
				<duration>2</duration>
				<voice>1</voice>
				<type>eighth</type>
			</note>
		</measure>
		<measure number="8">
			<note>
				<pitch>
					<step>A</step>
					<octave>3</octave>
				</pitch>
				<duration>3</duration>
				<voice>1</voice>
				<type>eighth</type>
				<dot/>
				<notations>
					<fermata type="upright"/>
				</notations>
			</note>
			<note>
				<pitch>
					<step>A</step>
					<octave>3</octave>
				</pitch>
				<duration>1</duration>
				<voice>1</voice>
				<type>16th</type>
			</note>
			<note>
				<pitch>
					<step>A</step>
					<octave>3</octave>
				</pitch>
				<duration>3</duration>
				<voice>1</voice>
				<type>eighth</type>
				<dot/>
			</note>
			<note>
				<pitch>
					<step>A</step>
					<octave>3</octave>
				</pitch>
				<duration>1</duration>
				<voice>1</voice>
				<type>16th</type>
			</note>
		</measure>
		<measure number="9">
			<note>
				<pitch>
					<step>A</step>
					<octave>3</octave>
				</pitch>
				<duration>3</duration>
				<voice>1</voice>
				<type>eighth</type>
				<dot/>
				<notations>
					<fermata type="upright"/>
				</notations>
			</note>
			<note>
				<pitch>
					<step>A</step>
					<octave>3</octave>
				</pitch>
				<duration>1</duration>
				<voice>1</voice>
				<type>16th</type>
			</note>
			<note>
				<pitch>
					<step>A</step>
					<octave>3</octave>
				</pitch>
				<duration>3</duration>
				<voice>1</voice>
				<type>eighth</type>
				<dot/>
			</note>
		</measure>
	</part>
</score-partwise>
<!-- INFO key="HAO" value="[story continued from previous song]" -->
<!-- INFO key="HAO" value="   The strange boy (who was his brother) said, "Nuri, you are having a" -->
<!-- INFO key="HAO" value="good time with your father but I am here with my grandmothers, the wood" -->
<!-- INFO key="HAO" value="rates.  Your father is my father too.  I have plenty of wild grapes and" -->
<!-- INFO key="HAO" value="cherries but I do not have any meat to eat."  Nuri said, "Come into the" -->
<!-- INFO key="HAO" value="lodge and I will give you some."  The strange boy sniffed the air and" -->
<!-- INFO key="HAO" value="asked, "Is your father here?"  "No," said Nuri.  The strange boy went into" -->
<!-- INFO key="HAO" value="the lodge and played until it was time for their father to return.  Then" -->
<!-- INFO key="HAO" value="he ran away, saying, "Forget, forget," so that Nuri would not tell their" -->
<!-- INFO key="HAO" value="father.  This child was a "wonder boy" and he came every day until both" -->
<!-- INFO key="HAO" value="boys were quite grown.  One day he failed to say "Forget" when he went" -->
<!-- INFO key="HAO" value="away.  As the boy and his father were eating their supper Nuri said," -->
<!-- INFO key="HAO" value=""Father, I want to tell you something.  There is a little boy who comes" -->
<!-- INFO key="HAO" value="every day to play with me while you are away."  The man said to himself," -->
<!-- INFO key="HAO" value=""I will try to catch the boy."  So one morning he hid instead of going" -->
<!-- INFO key="HAO" value="away.  The wonder boy came as usual, singing the same little song.  He" -->
<!-- INFO key="HAO" value="stopped and sniffed the air, saying to Nuri, "Your father is here."  "No,"" -->
<!-- INFO key="HAO" value="said Nuri, "Perhaps you smell his blanket."  "It is certainly he," said the" -->
<!-- INFO key="HAO" value="boy, and ran away.  The father determined to catch the boy by a trick and" -->
<!-- INFO key="HAO" value="told Nuri how to tie a thong around his brother's scalplock.  In the" -->
<!-- INFO key="HAO" value="struggle that ensued the wonder-boy's scalplock was torn from his head" -->
<!-- INFO key="HAO" value="and held by the thong.  The father kept the scalplock gave the boys a good" -->
<!-- INFO key="HAO" value="supper, and told them to stay in the lodge." -->
<!-- INFO key="HAO" value="   Nuri obeyed his father, but as time passed, his brother continually" -->
<!-- INFO key="HAO" value="tried to lead him into danger.  When Nuri objected his brother would say," -->
<!-- INFO key="HAO" value=""Give me my hair and I will go back to my grandmothers."  Then Nuri would" -->
<!-- INFO key="HAO" value="yield, but the boys always returned in safety.  One day they brought" -->
<!-- INFO key="HAO" value="snake rattles and hung them on the door of the lodge.  Another day they" -->
<!-- INFO key="HAO" value="went to a place where a boat was moored.  If anyone went in his boat it" -->
<!-- INFO key="HAO" value="upset, threw the people into the water, and then returned to its place by" -->
<!-- INFO key="HAO" value="the shore.  The wonder boy wanted to go in the boat but Nuri objected." -->
<!-- INFO key="HAO" value="The boy said as before, "Then you must give me my hair and I will go back" -->
<!-- INFO key="HAO" value="to my grandmothers."  Nuri yielded and they went in the boat, which soon" -->
<!-- INFO key="HAO" value="began tipping endwise and sidewise.  "Do as I do," cried the wonder-boy," -->
<!-- INFO key="HAO" value="moving his arms and making a noise like a wild goose.  Nuri imitated him" -->
<!-- INFO key="HAO" value="and the boys flew away.  Before leaving the boat they sand the following" -->
<!-- INFO key="HAO" value="song." -->
<!-- INFO key="HAO" value="   After they flew away the boat returned to the landing." -->
<!-- INFO key="HAO" value="   Then the wonder boy wanted to go where the people lived who killed his" -->
<!-- INFO key="HAO" value="mother.  These people lived in straw huts and when they saw the boys they" -->
<!-- INFO key="HAO" value="said, "These boys are fat; we will have a good feast."  The wonder boy" -->
<!-- INFO key="HAO" value="heard them talking.  They called to the boys and said, "Come in soon, we" -->
<!-- INFO key="HAO" value="will have the feast ready," and aside they said, "The boys have no sense."" -->
<!-- INFO key="HAO" value="Nuri was afraid but his brother said, "Do not cry.  We will destroy them." -->
<!-- INFO key="HAO" value="If we do not they will kill us."  The boys went into the lodge and saw a" -->
<!-- INFO key="HAO" value="kettle full of boiling water.  The wonder boy said, "Do as I do."  Then" -->
<!-- INFO key="HAO" value="both boys jumped on the edge of the kettle and upset it.  The boiling" -->
<!-- INFO key="HAO" value="water fell on the people but the boys flew out of the lodge like burned" -->
<!-- INFO key="HAO" value="leaves.  The people fought and killed one another, thinking they were" -->
<!-- INFO key="HAO" value="killing the boys, and the lodge burned up.  These people had long sharp" -->
<!-- INFO key="HAO" value="bones at the points of their elbows and heels and on the back of their" -->
<!-- INFO key="HAO" value="heads.  When they were dead the boys took off three or four of these" -->
<!-- INFO key="HAO" value="points.  The wonder boy said, "Let us take these home for farther to use" -->
<!-- INFO key="HAO" value="in sewing moccasins."" -->
<!-- INFO key="HAO" value="   This frightened the father and that night he made up his mind to run" -->
<!-- INFO key="HAO" value="away and leave the boys.  The wonder boy knew that his father would do" -->
<!-- INFO key="HAO" value="this but Nuri cried the next morning, when his father had gone.  The" -->
<!-- INFO key="HAO" value="brother said, "Father has left us but we will search until we find him."" -->
<!-- INFO key="HAO" value="So the boys started to find their father.  At first they saw no trace," -->
<!-- INFO key="HAO" value="and whenever they met a snake, a bear, or even a little but the wonder" -->
<!-- INFO key="HAO" value="boy would ask, "Have you seen my father?"  They replied "No."  After the" -->
<!-- INFO key="HAO" value="boys had traveled a long time the brother said to Nuri, "Are you tired?"" -->
<!-- INFO key="HAO" value="Nuri said that he was tired, and his brother summoned a tiger (mountain" -->
<!-- INFO key="HAO" value="lion?) and both boys rode on his back.  When they had traveled a long way" -->
<!-- INFO key="HAO" value="farther they came to a village and asked, "Have you seen our father?"  The" -->
<!-- INFO key="HAO" value="people replied, "Yes, we saw him going north."  The boys traveled all" -->
<!-- INFO key="HAO" value="that night but could not find him.  The brother said, "Let us kill all the" -->
<!-- INFO key="HAO" value="people in every village."  Nuri cried, but yielded.  The wonder boy said," -->
<!-- INFO key="HAO" value=""Nur, do this."  The boys turned their heads from side to side and they" -->
<!-- INFO key="HAO" value="rattled.  They said to the people, "If you see us you will die, and if" -->
<!-- INFO key="HAO" value="you do not see us you will die."  The people fell over and died, one after" -->
<!-- INFO key="HAO" value="another.  Then the boys looked all through the village but could not find" -->
<!-- INFO key="HAO" value="their father.  At the third village they found that their father had been" -->
<!-- INFO key="HAO" value="killed by the people.  Huri cried but his brother said, "I would not cry." -->
<!-- INFO key="HAO" value="He left us to starve."  They found their father's body and took it away" -->
<!-- INFO key="HAO" value="to a high hill.  They cut two willow poles, two cottonwood, two elm, and" -->
<!-- INFO key="HAO" value="two walnut poles, and four cedar posts about as long as the height of a" -->
<!-- INFO key="HAO" value="man.  They worked all day doing this, and took them on the hill.  Then" -->
<!-- INFO key="HAO" value="they laid them crosswise in a pile with sweet grass underneath and put" -->
<!-- INFO key="HAO" value="their father's body on top of the pile.  The wonder boy said, "Father," -->
<!-- INFO key="HAO" value="we used to love you but now we are going to burn you up and the smoke" -->
<!-- INFO key="HAO" value="will ascend to Tirawa; but, father, you are not dead forever, and some" -->
<!-- INFO key="HAO" value="day we will see you again."" -->
<!-- INFO key="HTX" value="Nuri, do this and we will turn into geese." -->
<!-- INFO key="HTX" value="We will not drown." -->
<!-- INFO key="CNT" value="Pawnee" -->
<!-- INFO key="TXO" value="Pawnee" -->
<!-- INFO key="OCY" value="United States" -->
<!-- INFO key="OCL" value="Frances Densmore" -->
<!-- INFO key="YOR" value="Frances Densmore, "Pawnee Music"" -->
<!-- INFO key="YOR" value="Bulletin 93, page 106, No. 76" -->
<!-- INFO key="PPR" value="Smithsonian Institution, Bureau of American Ethnology" -->
<!-- INFO key="PPR" value="Government Printing Office" -->
<!-- INFO key="PDT" value="1926" -->
<!-- INFO key="PPP" value="Washington, DC, United States of America" -->
<!-- INFO key="YEC" value="Electronic Copyright 2000 David Huron" -->
<!-- INFO key="YER" value="September 2000" -->
<!-- INFO key="YEN" value="United States of America" -->
<!-- INFO key="ENC" value="David Huron" -->
<!-- INFO key="RDT" value="September 10, 2000" -->
<!-- INFO key="EEV" value="Release 1.0" -->
<!-- INFO key="AIN" value="vox" -->
